<svg width="32" height="32" viewBox="0 0 32 32" fill="none" xmlns="http://www.w3.org/2000/svg">
<path d="M28.6697 31.9276H3.18552C1.44796 31.9276 0 30.4796 0 28.742V5.35742C0 3.61986 1.15837 2.17191 2.67873 2.17191H4.27149V4.27145H2.67873C2.46154 4.27145 2.17195 4.70584 2.17195 5.35742V28.742C2.17195 29.3212 2.67873 29.828 3.25792 29.828H28.7421C29.3213 29.828 29.8281 29.3212 29.8281 28.742V5.35742C29.8281 4.70584 29.4661 4.27145 29.3213 4.27145H27.7285V2.17191H29.3213C30.7692 2.17191 32 3.61986 32 5.35742V28.742C31.8552 30.4796 30.4072 31.9276 28.6697 31.9276Z" fill="#F7941D"/>
<path d="M7.45707 6.44343C6.87788 6.44343 6.37109 5.93665 6.37109 5.35746V1.08597C6.37109 0.506787 6.87788 0 7.45707 0C8.03625 0 8.54304 0.506787 8.54304 1.08597V5.35746C8.47064 5.93665 8.03625 6.44343 7.45707 6.44343Z" fill="#F7941D"/>
<path d="M24.3985 6.44343C23.8193 6.44343 23.3125 5.93665 23.3125 5.35746V1.08597C23.3125 0.506787 23.8193 0 24.3985 0C24.9777 0 25.4844 0.506787 25.4844 1.08597V5.35746C25.4844 5.93665 24.9777 6.44343 24.3985 6.44343Z" fill="#F7941D"/>
<path d="M10.6426 2.17191H21.2127V4.34385H10.6426V2.17191Z" fill="#F7941D"/>
<path d="M2.09766 8.543H29.7538V10.7149H2.09766V8.543Z" fill="#F7941D"/>
<path d="M25.4844 12.8145H27.5839V14.914H25.4844V12.8145Z" fill="#F7941D"/>
<path d="M21.2129 12.8145H23.3848V14.914H21.2129V12.8145Z" fill="#F7941D"/>
<path d="M17.0137 12.8145H19.1132V14.914H17.0137V12.8145Z" fill="#F7941D"/>
<path d="M12.7441 12.8145H14.8437V14.914H12.7441V12.8145Z" fill="#F7941D"/>
<path d="M8.46875 12.8145H10.6407V14.914H8.46875V12.8145Z" fill="#F7941D"/>
<path d="M25.4844 17.0859H27.5839V19.1855H25.4844V17.0859Z" fill="#F7941D"/>
<path d="M21.2129 17.0859H23.3848V19.1855H21.2129V17.0859Z" fill="#F7941D"/>
<path d="M17.0137 17.0859H19.1132V19.1855H17.0137V17.0859Z" fill="#F7941D"/>
<path d="M12.7441 17.0859H14.8437V19.1855H12.7441V17.0859Z" fill="#F7941D"/>
<path d="M8.46875 17.0859H10.6407V19.1855H8.46875V17.0859Z" fill="#F7941D"/>
<path d="M4.26953 17.0859H6.36908V19.1855H4.26953V17.0859Z" fill="#F7941D"/>
<path d="M25.4844 21.285H27.5839V23.4569H25.4844V21.285Z" fill="#F7941D"/>
<path d="M21.2129 21.285H23.3848V23.4569H21.2129V21.285Z" fill="#F7941D"/>
<path d="M17.0137 21.285H19.1132V23.4569H17.0137V21.285Z" fill="#F7941D"/>
<path d="M12.7441 21.285H14.8437V23.4569H12.7441V21.285Z" fill="#F7941D"/>
<path d="M8.46875 21.285H10.6407V23.4569H8.46875V21.285Z" fill="#F7941D"/>
<path d="M4.26953 21.285H6.36908V23.4569H4.26953V21.285Z" fill="#F7941D"/>
<path d="M21.2129 25.5565H23.3848V27.6561H21.2129V25.5565Z" fill="#F7941D"/>
<path d="M17.0137 25.5565H19.1132V27.6561H17.0137V25.5565Z" fill="#F7941D"/>
<path d="M12.7441 25.5565H14.8437V27.6561H12.7441V25.5565Z" fill="#F7941D"/>
<path d="M8.46875 25.5565H10.6407V27.6561H8.46875V25.5565Z" fill="#F7941D"/>
<path d="M4.26953 25.5565H6.36908V27.6561H4.26953V25.5565Z" fill="#F7941D"/>
</svg>
