<svg width="32" height="40" viewBox="0 0 32 40" fill="none" xmlns="http://www.w3.org/2000/svg">
<path d="M16.4978 9.18319C18.7575 9.18319 20.5894 7.35134 20.5894 5.09163C20.5894 2.83192 18.7575 1.00006 16.4978 1.00006C14.2381 1.00006 12.4062 2.83192 12.4062 5.09163C12.4062 7.35134 14.2381 9.18319 16.4978 9.18319Z" stroke="#EF8F11" stroke-width="1.4" stroke-miterlimit="10"/>
<path d="M11.3694 9.47934L8.89575 19.147C8.59386 20.3281 7.39365 21.0389 6.21249 20.737L5.52519 20.5626C3.50285 20.0438 2.28212 17.9863 2.79943 15.9625L4.53307 9.18332C5.31123 10.2956 6.60377 11.021 8.06483 11.021C9.39254 11.021 10.5796 10.4216 11.3709 9.47934H11.3694Z" stroke="#EF8F11" stroke-width="1.4" stroke-miterlimit="10"/>
<path d="M12.1753 6.70519C12.1753 7.7105 11.8148 8.63227 11.2125 9.34742C10.4593 10.2443 9.32795 10.8158 8.06472 10.8158C6.674 10.8158 5.44301 10.1241 4.70149 9.06605C4.23107 8.3978 3.9541 7.58447 3.9541 6.70519C3.9541 4.43519 5.79619 2.59457 8.06472 2.59457C10.3333 2.59457 12.1753 4.43666 12.1753 6.70519Z" stroke="#EF8F11" stroke-width="1.4" stroke-miterlimit="10"/>
<path d="M12.225 24.1864L12.3715 29.106C12.3935 29.8519 12.1004 30.5744 11.5626 31.0917L4.36276 38.2974C3.58314 39.0491 2.34629 39.0374 1.58132 38.2724C0.788505 37.4796 0.809022 36.1871 1.62821 35.4207L7.24093 30.0556C8.09382 29.2408 8.53639 28.086 8.447 26.9093L8.07917 22.0703" stroke="#EF8F11" stroke-width="1.4" stroke-miterlimit="10"/>
<path d="M17.5052 9.05878L20.4435 11.7596C20.7981 12.1143 21.3242 12.2359 21.799 12.0732L28.6735 9.71237C29.5645 9.40609 30.5478 9.77832 31.0138 10.599C31.6161 11.66 31.1106 13.0082 29.9602 13.4127L20.8875 16.6044C20.2295 16.836 19.4968 16.6865 18.9824 16.2132L14.1566 11.7831L12.6252 18.4832C12.4772 19.1309 12.7791 19.7977 13.3624 20.1142L19.3004 23.3338C20.083 23.7588 20.5402 24.6073 20.464 25.4939L19.3048 37.1707C19.211 38.2537 18.3054 39.0846 17.218 39.0846C15.9665 39.0846 14.9949 37.9943 15.137 36.7516L16.4442 26.4553C16.4779 26.1666 16.3373 25.8867 16.0867 25.7401L9.57122 23.1155C8.14093 22.2787 7.56061 22.0164 7.80534 20.378" stroke="#EF8F11" stroke-width="1.4" stroke-miterlimit="10"/>
</svg>
