<svg width="47" height="31" viewBox="0 0 47 31" fill="none" xmlns="http://www.w3.org/2000/svg">
<path d="M37.7115 28.267L37.6937 28.2671L37.676 28.2693L37.3731 28.3071H10.0804C6.14677 28.3071 2.92723 24.945 2.92723 20.9632C2.92723 17.8953 4.86696 15.3416 7.76791 14.3359L7.76791 14.3359L7.77054 14.335L8.61429 14.0336L8.77963 13.9746L8.80913 13.8015L8.9598 12.9176L8.95998 12.9165C9.30077 10.8718 11.0497 9.21963 13.0737 9.21963C13.7201 9.21963 14.3558 9.36945 14.935 9.66836L14.9376 9.66971L16.2936 10.3527L16.5679 10.4909L16.6996 10.2134L17.3524 8.83756C18.9724 5.43173 22.4357 3.16271 26.1618 3.16271C31.5561 3.16271 35.9969 7.46332 35.9969 12.8772C35.9969 13.5437 35.9919 14.052 35.9869 14.3933C35.9844 14.564 35.9819 14.6929 35.98 14.779L35.9777 14.8759L35.9771 14.9L35.977 14.9059L35.9769 14.9073L35.9769 14.9077V14.9077L35.9682 15.2143L36.2748 15.2163L37.7995 15.2263C37.7998 15.2263 37.8001 15.2263 37.8005 15.2263C41.3177 15.2748 44.0929 18.1497 44.0929 21.6964C44.0929 25.2462 41.2247 28.2478 37.7115 28.267ZM38.2125 13.1262C38.2135 13.1039 38.2141 13.0811 38.2141 13.058C38.2141 6.43447 32.777 0.985706 26.1819 0.985706C21.5336 0.985706 17.5226 3.73514 15.5567 7.61725C14.775 7.26699 13.9183 7.07276 13.0033 7.07276C9.92714 7.07276 7.39587 9.4803 6.82331 12.3715C3.26218 13.6776 0.7 16.9606 0.7 21.0134C0.7 26.1733 4.85432 30.5143 10 30.5143H37.7634C42.4589 30.5143 46.3 26.4627 46.3 21.7466C46.3 17.1166 42.7832 13.3054 38.2125 13.1262Z" fill="#F7941D" stroke="#F7941D" stroke-width="0.6"/>
</svg>
