<svg width="35" height="37" viewBox="0 0 35 37" fill="none" xmlns="http://www.w3.org/2000/svg">
<path d="M3.84999 26.0512C2.3508 23.603 1.49805 20.7284 1.49805 17.6474C1.49805 8.73471 8.73267 1.5 17.6453 1.5C26.5579 1.5 33.7925 8.73471 33.7925 17.6474C33.7925 20.7284 32.926 23.603 31.4406 26.0512" stroke="#F7941D" stroke-width="1.8" stroke-miterlimit="10"/>
<path d="M6.9174 27.2886L8.25155 29.9844L11.2362 30.4245L9.07679 32.5289L9.58569 35.4998L6.9174 34.0969L4.24912 35.4998L4.75802 32.5289L2.59863 30.4245L5.58327 29.9844L6.9174 27.2886Z" stroke="#F7941D" stroke-width="1.2" stroke-miterlimit="10"/>
<path d="M17.6313 27.2886L18.9654 29.9844L21.95 30.4245L19.7907 32.5289L20.2996 35.4998L17.6313 34.0969L14.963 35.4998L15.4719 32.5289L13.3125 30.4245L16.2971 29.9844L17.6313 27.2886Z" stroke="#F7941D" stroke-width="1.2" stroke-miterlimit="10"/>
<path d="M28.346 27.2886L29.6802 29.9844L32.6648 30.4245L30.5054 32.5289L31.0143 35.4998L28.346 34.0969L25.6777 35.4998L26.2004 32.5289L24.041 30.4245L27.0119 29.9844L28.346 27.2886Z" stroke="#F7941D" stroke-width="1.2" stroke-miterlimit="10"/>
<path d="M13.3546 22.1317C13.3546 22.1317 15.2801 24.1673 17.4258 24.0573C18.8974 23.9885 22.2672 24.016 24.2203 24.0435C25.0318 24.0435 25.6782 23.3971 25.6782 22.5993C25.6782 21.8016 25.0318 21.1551 24.234 21.1551H23.0649H26.022C26.7097 21.1551 27.2737 20.5912 27.2737 19.9035C27.2737 19.2158 26.7097 18.6519 26.022 18.6519H23.3675H26.751C27.5763 18.6519 28.2502 17.9779 28.2502 17.1527C28.2502 16.3274 27.5763 15.6535 26.751 15.6535H23.7939H27.8238C28.4565 15.6535 28.9654 15.1446 28.9654 14.5119C28.9654 13.3565 28.0164 12.4212 26.8473 12.435L18.8287 12.6138C18.8287 12.6138 19.984 7.0846 18.8424 6.31437C17.5771 5.44785 16.2429 7.0571 15.3764 10.3581C14.895 12.2149 13.3408 12.9714 13.3408 12.9714" stroke="#F7941D" stroke-width="1.8" stroke-miterlimit="10"/>
<path d="M11.0164 11.8857H10.1362C9.01196 11.8857 8.10059 12.7971 8.10059 13.9214V21.7888C8.10059 22.913 9.01196 23.8244 10.1362 23.8244H11.0164C12.1407 23.8244 13.0521 22.913 13.0521 21.7888V13.9214C13.0521 12.7971 12.1407 11.8857 11.0164 11.8857Z" stroke="#F7941D" stroke-width="1.8" stroke-miterlimit="10"/>
</svg>
