<svg width="61" height="32" viewBox="0 0 61 32" fill="none" xmlns="http://www.w3.org/2000/svg">
<g clip-path="url(#clip0_297_4751)">
<path d="M30.7892 8.30379C32.4531 8.62942 34.0575 9.12583 35.5785 9.7771C35.9041 9.9161 36.2734 9.75328 36.3846 9.41572L38.815 1.93397C38.9182 1.61627 38.7395 1.27077 38.4179 1.17547C36.0312 0.480504 33.5134 0.0754407 30.9163 -1.22921e-05C30.5827 -0.00795471 30.3047 0.262087 30.3047 0.59964V7.72399C30.3047 8.00992 30.5072 8.25216 30.7892 8.30776V8.30379Z" fill="#F7941D"/>
<path d="M29.7095 0.599661V7.43014C29.7095 7.79152 29.3918 8.06553 29.0344 8.01788C28.0654 7.89874 27.0806 7.8352 26.0838 7.8352C25.4683 7.8352 24.8567 7.863 24.2531 7.91066C23.979 7.93448 23.7209 7.76769 23.6375 7.50559L21.7711 1.77117C21.6678 1.4495 21.8505 1.10003 22.1761 1.0087C24.396 0.416985 26.7112 0.0714899 29.0979 8.12556e-06C29.4315 -0.0119055 29.7095 0.262108 29.7095 0.599661Z" fill="#F7941D"/>
<path d="M39.3789 2.12458L36.881 9.80887C36.7897 10.0869 36.9168 10.3847 37.1789 10.5197C38.5926 11.2464 39.923 12.1082 41.154 13.0891C41.4201 13.2996 41.8093 13.2519 42.0079 12.9779L47.0513 6.04019C47.2459 5.77015 47.1863 5.38494 46.9083 5.19829C44.8274 3.7766 42.5559 2.61304 40.1414 1.74731C39.8277 1.63612 39.4782 1.81085 39.3749 2.12855L39.3789 2.12458Z" fill="#F7941D"/>
<path d="M53.9759 12.962L46.6967 18.2517C46.4386 18.4383 46.379 18.7878 46.5498 19.0578C47.3559 20.3167 48.0469 21.659 48.6108 23.0648C48.73 23.3587 49.0476 23.5096 49.3455 23.4143L57.8876 20.6384C58.2053 20.5351 58.38 20.1896 58.2688 19.8719C57.4031 17.4574 56.2395 15.1899 54.8178 13.105C54.6312 12.827 54.246 12.7674 53.9759 12.962Z" fill="#F7941D"/>
<path d="M14.2195 10.9367C12.5675 11.862 11.0346 12.9779 9.65264 14.2527C9.44217 14.4473 9.12844 14.4671 8.89811 14.3003L6.38434 12.4776C6.11429 12.279 6.05473 11.8978 6.25726 11.6317C7.69086 9.78111 9.33494 8.10526 11.1577 6.63988C11.4238 6.42544 11.813 6.485 12.0115 6.75902L14.4141 10.067C14.6246 10.3569 14.5293 10.762 14.2156 10.9407L14.2195 10.9367Z" fill="#F7941D"/>
<path d="M42.4926 14.2328C43.6125 15.2613 44.637 16.3931 45.5464 17.6163C45.741 17.8784 46.1103 17.9379 46.3724 17.7473L53.6278 12.4775C53.8979 12.279 53.9575 11.8977 53.751 11.6317C52.1942 9.62223 50.3873 7.8193 48.3819 6.26258C48.1158 6.05608 47.7346 6.11565 47.536 6.38569L42.4052 13.4465C42.2265 13.6927 42.2662 14.0303 42.4886 14.2368L42.4926 14.2328Z" fill="#F7941D"/>
<path d="M2.12372 20.6344L3.84326 21.1943C4.12124 21.2857 4.41908 21.1586 4.5541 20.9005C5.58265 18.9268 6.87329 17.1119 8.38632 15.5036C8.63253 15.2415 8.60076 14.8206 8.30689 14.6101L6.03933 12.962C5.76929 12.7674 5.38409 12.827 5.19744 13.105C3.77575 15.1859 2.61218 17.4574 1.74646 19.8719C1.63526 20.1857 1.81 20.5351 2.12769 20.6384L2.12372 20.6344Z" fill="#F7941D"/>
<path d="M58.0782 21.1983L49.5798 23.9583C49.266 24.0616 49.0993 24.3951 49.1985 24.7089C49.6592 26.1464 49.9928 27.6396 50.1794 29.1765C50.2152 29.4783 50.4653 29.7046 50.7672 29.7046H59.4125C59.7461 29.7046 60.0201 29.4267 60.0121 29.0931C59.9367 26.4959 59.5316 23.9821 58.8367 21.5875C58.7413 21.2658 58.3959 21.0871 58.0782 21.1904V21.1983Z" fill="#F7941D"/>
<path d="M1.98578 29.1804C2.26773 26.8295 2.89121 24.5858 3.79665 22.4929C3.93564 22.1673 3.77282 21.794 3.43924 21.6868L1.93812 21.1983C1.62042 21.0951 1.27493 21.2738 1.17962 21.5954C0.480687 23.9861 0.0756238 26.4999 0.000170813 29.097C-0.0077716 29.4306 0.262271 29.7086 0.599823 29.7086H1.39804C1.69985 29.7086 1.95003 29.4823 1.98578 29.1804Z" fill="#F7941D"/>
<path d="M23.1283 7.87492L21.0116 1.35817C20.9084 1.04444 20.5708 0.873678 20.2571 0.976929C17.4058 1.93399 14.7133 3.30803 12.2591 5.05933C11.9891 5.24995 11.9295 5.62721 12.1241 5.89329L15.3646 10.353C15.5314 10.5833 15.8332 10.6587 16.0913 10.5436C18.1365 9.61828 20.3365 8.97097 22.6398 8.6493C23.0092 8.59768 23.2474 8.23233 23.1323 7.87492H23.1283Z" fill="#F7941D"/>
<path d="M27.5418 31.2912L27.5418 31.2911L27.5363 31.2943C26.5979 31.8227 25.3473 31.2819 25.0857 30.2383L25.0857 30.2383L25.0842 30.2325L21.5274 16.7357L28.2205 28.9834C28.6715 29.8086 28.3684 30.8395 27.5418 31.2912Z" stroke="#F7941D"/>
</g>
<defs>
<clipPath id="clip0_297_4751">
<rect width="60.0169" height="32" fill="white"/>
</clipPath>
</defs>
</svg>
