<svg width="108" height="113" viewBox="0 0 108 113" fill="none" xmlns="http://www.w3.org/2000/svg">
<g clip-path="url(#clip0_229_1546)">
<path d="M50.4373 1.04837L108.989 60.7241L108.989 112.927L0.000370129 1.04838L50.4373 1.04837Z" fill="#F7941D"/>
<path d="M33.3339 16.9163L33.9658 16.2993L38.8808 16.1359C39.457 16.1173 39.9454 16.0884 40.346 16.0493C40.749 16.0078 41.0922 15.9333 41.3757 15.8256C41.6638 15.718 41.9179 15.5568 42.1379 15.342C42.3907 15.0952 42.5501 14.8207 42.6161 14.5185C42.6845 14.2186 42.6673 13.9154 42.5645 13.6088C42.4618 13.3022 42.2836 13.0191 42.0299 12.7593C41.7603 12.4831 41.4676 12.298 41.1518 12.2041C40.8406 12.1101 40.5284 12.1064 40.2151 12.1929C39.9041 12.2817 39.6117 12.4598 39.3378 12.7272L38.5289 11.8987C38.9501 11.4873 39.4148 11.2234 39.9227 11.1069C40.4307 10.9903 40.937 11.0126 41.4417 11.1736C41.9486 11.3369 42.4066 11.628 42.8156 12.047C43.227 12.4682 43.5025 12.9284 43.6423 13.4274C43.7821 13.9263 43.7913 14.4157 43.6699 14.8954C43.5485 15.375 43.3029 15.7954 42.9331 16.1565C42.6687 16.4147 42.3632 16.6192 42.0168 16.7701C41.6749 16.921 41.2353 17.0302 40.6978 17.0978C40.165 17.1655 39.4763 17.2093 38.6318 17.2293L35.3278 17.3009L35.2717 17.3558L38.5349 20.6978L37.7626 21.452L33.3339 16.9163ZM41.3697 25.3429C40.8533 24.814 40.5573 24.2229 40.4818 23.5697C40.4087 22.9142 40.5511 22.2197 40.9092 21.486C41.2695 20.7501 41.8406 20.0006 42.6223 19.2373C43.3993 18.4786 44.1588 17.9291 44.9007 17.5886C45.6473 17.2483 46.3473 17.1225 47.0009 17.2112C47.6591 17.3 48.2441 17.6066 48.756 18.1308C49.2679 18.6551 49.5592 19.2461 49.63 19.9038C49.7054 20.5617 49.563 21.2585 49.2026 21.9944C48.8468 22.7304 48.2805 23.4777 47.5034 24.2364C46.7218 24.9996 45.9588 25.5526 45.2145 25.8953C44.4725 26.2358 43.7748 26.3616 43.1212 26.2728C42.47 26.1818 41.8862 25.8718 41.3697 25.3429ZM42.142 24.5888C42.6539 25.113 43.3043 25.2734 44.0932 25.0701C44.8821 24.8667 45.7446 24.3079 46.6808 23.3938C47.3033 22.786 47.7683 22.2017 48.0757 21.641C48.3854 21.0826 48.5338 20.5673 48.5209 20.0953C48.5103 19.6256 48.3359 19.2176 47.9977 18.8712C47.4904 18.3517 46.8376 18.1958 46.0394 18.4037C45.2436 18.6094 44.3788 19.1681 43.4449 20.0799C42.8224 20.6877 42.3575 21.2697 42.0501 21.8258C41.7428 22.3819 41.5956 22.8937 41.6085 23.3611C41.6237 23.8308 41.8016 24.2401 42.142 24.5888ZM50.1378 31.4292L50.517 31.059C50.7791 30.8031 51.0716 30.6227 51.3943 30.5178C51.7217 30.413 52.0527 30.4008 52.3871 30.4811C52.7262 30.5615 53.042 30.7515 53.3345 31.051C53.6315 31.3553 53.8139 31.6755 53.8816 32.0117C53.9516 32.3456 53.9281 32.6727 53.8109 32.9928C53.6961 33.3106 53.5076 33.5975 53.2455 33.8535L52.8664 34.2237C52.6042 34.4796 52.3106 34.6612 51.9855 34.7683C51.665 34.8755 51.3364 34.8901 50.9996 34.8121C50.6674 34.7341 50.3551 34.5453 50.0626 34.2457C49.7655 33.9415 49.5808 33.6212 49.5085 33.285C49.4385 32.9464 49.4598 32.617 49.5723 32.2969C49.6872 31.9744 49.8757 31.6852 50.1378 31.4292ZM51.2162 31.7752L50.8371 32.1454C50.6194 32.3579 50.4743 32.6002 50.4017 32.8723C50.3314 33.1421 50.4196 33.4034 50.6664 33.6561C50.9064 33.9019 51.1609 33.9917 51.43 33.9255C51.7037 33.8594 51.9494 33.72 52.1671 33.5075L52.5462 33.1373C52.7639 32.9248 52.9102 32.686 52.985 32.4209C53.0622 32.1535 52.9774 31.8934 52.7306 31.6406C52.4907 31.3949 52.2316 31.3027 51.9533 31.3642C51.6796 31.4257 51.4339 31.5627 51.2162 31.7752ZM50.7559 23.8311L51.135 23.4609C51.3972 23.2049 51.6896 23.0245 52.0124 22.9197C52.3398 22.8149 52.6707 22.8026 53.0052 22.8829C53.3442 22.9633 53.66 23.1533 53.9525 23.4529C54.2496 23.7571 54.432 24.0773 54.4997 24.4136C54.5697 24.7475 54.5461 25.0745 54.429 25.3946C54.3142 25.7125 54.1257 25.9994 53.8636 26.2553L53.4844 26.6255C53.2223 26.8814 52.9287 27.063 52.6036 27.1701C52.2831 27.2773 51.9544 27.2919 51.6176 27.2139C51.2855 27.1359 50.9732 26.9471 50.6807 26.6476C50.3836 26.3433 50.1989 26.0231 50.1266 25.6868C50.0566 25.3482 50.0779 25.0189 50.1904 24.6987C50.3053 24.3762 50.4938 24.087 50.7559 23.8311ZM51.8343 24.177L51.4552 24.5472C51.2375 24.7598 51.0924 25.0021 51.0197 25.2741C50.9494 25.5439 51.0377 25.8052 51.2845 26.058C51.5244 26.3037 51.7789 26.3935 52.0481 26.3273C52.3218 26.2612 52.5675 26.1219 52.7851 25.9093L53.1643 25.5391C53.3819 25.3266 53.5282 25.0878 53.6031 24.8227C53.6803 24.5553 53.5955 24.2952 53.3487 24.0424C53.1088 23.7967 52.8496 23.7046 52.5713 23.766C52.2976 23.8275 52.052 23.9645 51.8343 24.177ZM45.5539 29.4315L57.5699 27.3543L58.3515 28.1547L46.3355 30.2319L45.5539 29.4315ZM58.0585 42.2381L55.8921 40.0194L63.0818 32.9993L65.3442 35.3163C66.0252 36.0138 66.4639 36.7511 66.6605 37.5283C66.8595 38.3033 66.8201 39.0847 66.5424 39.8724C66.267 40.6579 65.7572 41.414 65.0129 42.1407C64.264 42.872 63.489 43.3681 62.6878 43.6292C61.889 43.888 61.0954 43.904 60.307 43.6771C59.521 43.448 58.7715 42.9683 58.0585 42.2381ZM57.5146 40.136L58.776 41.4279C59.3564 42.0223 59.9521 42.403 60.5631 42.5699C61.1741 42.7368 61.7851 42.7094 62.3961 42.4877C63.0071 42.266 63.6051 41.8695 64.1902 41.2982C64.7707 40.7314 65.1778 40.1488 65.4116 39.5501C65.6478 38.9492 65.6943 38.3507 65.551 37.7545C65.4101 37.156 65.0654 36.576 64.517 36.0143L63.1596 34.6241L57.5146 40.136ZM62.7203 47.0125L68.1126 41.7475L68.9215 42.576L63.5293 47.841L62.7203 47.0125ZM69.4226 41.2912C69.2649 41.1297 69.184 40.9368 69.1797 40.7123C69.1777 40.4903 69.254 40.3038 69.4084 40.153C69.5629 40.0022 69.7511 39.9304 69.9731 39.9377C70.1973 39.9473 70.3883 40.0328 70.546 40.1943C70.7037 40.3558 70.7835 40.5476 70.7855 40.7697C70.7897 40.9941 70.7146 41.1817 70.5602 41.3325C70.4057 41.4834 70.2163 41.554 69.9921 41.5444C69.7701 41.5371 69.5803 41.4527 69.4226 41.2912ZM72.925 49.0921L71.9876 48.5535C72.066 48.3856 72.1191 48.1988 72.147 47.9933C72.1795 47.7878 72.159 47.5702 72.0854 47.3403C72.0118 47.1104 71.8573 46.8749 71.622 46.6339C71.2997 46.3039 70.9552 46.1032 70.5882 46.0317C70.2259 45.9603 69.9289 46.0377 69.6972 46.2639C69.4913 46.465 69.4017 46.6987 69.4286 46.9651C69.4555 47.2314 69.5846 47.5626 69.8158 47.9586L70.4007 48.9509C70.7545 49.5473 70.9262 50.0814 70.9159 50.5531C70.908 51.0226 70.7157 51.4413 70.3389 51.8092C70.0299 52.1109 69.6669 52.2916 69.2499 52.3514C68.8351 52.4135 68.4032 52.3551 67.9543 52.1763C67.5054 51.9975 67.0764 51.6986 66.6673 51.2796C66.1303 50.7296 65.8052 50.1579 65.692 49.5644C65.5788 48.9709 65.7047 48.4022 66.0697 47.8583L67.0341 48.4528C66.8171 48.811 66.7377 49.1651 66.7959 49.5151C66.8565 49.8674 67.0525 50.2133 67.3838 50.5526C67.7609 50.9388 68.1421 51.1654 68.5276 51.2324C68.9178 51.2996 69.2287 51.22 69.4604 50.9938C69.6476 50.8109 69.7404 50.5923 69.7388 50.3378C69.7396 50.0811 69.639 49.7861 69.4371 49.4529L68.7702 48.3486C68.4051 47.7405 68.2322 47.2006 68.2518 46.729C68.2759 46.2574 68.474 45.8399 68.8461 45.4766C69.1504 45.1795 69.5029 45.0021 69.9038 44.9445C70.3069 44.8891 70.7203 44.9449 71.1439 45.1119C71.5699 45.2812 71.9679 45.5555 72.3381 45.9346C72.8591 46.4682 73.1512 47.0014 73.2142 47.5342C73.2795 48.0693 73.1831 48.5886 72.925 49.0921ZM72.0807 56.8237C71.5871 56.3182 71.2814 55.7663 71.1636 55.1682C71.0458 54.57 71.1004 53.9681 71.3274 53.3624C71.5544 52.7568 71.937 52.1911 72.4753 51.6656C73.023 51.1308 73.6045 50.7596 74.22 50.5518C74.84 50.3441 75.4454 50.3062 76.036 50.4381C76.6312 50.5702 77.1664 50.8796 77.6418 51.3664C78.012 51.7455 78.2754 52.1558 78.432 52.5971C78.5887 53.0385 78.6355 53.4797 78.5724 53.9207C78.5093 54.3618 78.3321 54.7703 78.0408 55.1461L77.2318 54.3176C77.4159 54.0145 77.4964 53.6616 77.4734 53.2588C77.4551 52.8561 77.2677 52.4722 76.9112 52.1071C76.5959 51.7841 76.2351 51.5832 75.8289 51.5043C75.4274 51.4255 75.0082 51.4668 74.5714 51.6281C74.1393 51.7895 73.7196 52.069 73.3123 52.4666C72.8958 52.8734 72.597 53.2931 72.416 53.7258C72.2373 54.1609 72.1803 54.5823 72.2448 54.9902C72.3116 55.4004 72.505 55.7694 72.8249 56.097C73.0351 56.3124 73.2634 56.4712 73.5097 56.5736C73.756 56.676 74.0087 56.7195 74.268 56.7041C74.5272 56.6887 74.7803 56.6108 75.0272 56.4703L75.8361 57.2988C75.4721 57.5628 75.0723 57.7268 74.6367 57.791C74.2057 57.8553 73.7679 57.8096 73.3233 57.6539C72.8834 57.4983 72.4691 57.2216 72.0807 56.8237ZM77.4726 62.3459C76.9972 61.8591 76.6961 61.3188 76.569 60.7252C76.4442 60.1338 76.4895 59.5318 76.705 58.9191C76.9228 58.3087 77.3102 57.7316 77.8672 57.1877C78.4289 56.6393 79.0186 56.2623 79.6364 56.0569C80.2564 55.8538 80.8605 55.8217 81.4487 55.9605C82.0392 56.1017 82.5721 56.4158 83.0474 56.9026C83.5227 57.3894 83.8228 57.9284 83.9475 58.5198C84.0746 59.1134 84.0281 59.7166 83.808 60.3293C83.5902 60.9443 83.2004 61.526 82.6387 62.0744C82.0817 62.6183 81.4943 62.9907 80.8766 63.1915C80.2612 63.3946 79.6583 63.4256 79.0678 63.2844C78.4796 63.1455 77.9479 62.8327 77.4726 62.3459ZM78.2168 61.6192C78.5779 61.989 78.9697 62.2007 79.3924 62.2543C79.8151 62.3079 80.2368 62.2412 80.6577 62.0543C81.0787 61.8673 81.4693 61.5979 81.8297 61.2459C82.1902 60.894 82.47 60.5088 82.6693 60.0901C82.8686 59.6715 82.9477 59.2492 82.9065 58.8231C82.8653 58.397 82.6642 57.999 82.3031 57.6292C81.9421 57.2595 81.549 57.0489 81.124 56.9976C80.699 56.9462 80.2749 57.0152 79.8517 57.2044C79.4284 57.3937 79.0366 57.6643 78.6762 58.0162C78.3157 58.3681 78.0371 58.7522 77.8401 59.1686C77.6431 59.5849 77.5664 60.005 77.6099 60.4288C77.6535 60.8526 77.8558 61.2494 78.2168 61.6192ZM86.7283 67.1898L89.9159 64.0774L90.7248 64.9059L85.3326 70.171L84.5236 69.3425L85.4364 68.4513L85.3815 68.3951C84.9843 68.5361 84.5595 68.5669 84.107 68.4875C83.657 68.4058 83.2331 68.1613 82.8355 67.7541C82.5064 67.417 82.2876 67.0455 82.1791 66.6394C82.073 66.231 82.0966 65.8057 82.2499 65.3634C82.4055 64.9188 82.7127 64.4726 83.1714 64.0247L86.5978 60.6792L87.4067 61.5077L84.0366 64.7983C83.6434 65.1823 83.4372 65.5985 83.4179 66.047C83.401 66.4978 83.5605 66.8953 83.8964 67.2393C84.0975 67.4453 84.3547 67.6033 84.668 67.7135C84.9835 67.826 85.321 67.8485 85.6803 67.7811C86.0419 67.716 86.3912 67.5189 86.7283 67.1898ZM90.867 69.3497L87.6232 72.5169L86.8142 71.6884L92.2065 66.4234L92.988 67.2238L92.1455 68.0464L92.214 68.1167C92.6113 67.9757 93.0186 67.9528 93.4362 68.048C93.8561 68.1409 94.2648 68.3909 94.6624 68.7982C95.0189 69.1633 95.256 69.5559 95.3735 69.9759C95.4935 70.3937 95.4767 70.8261 95.3234 71.273C95.1723 71.7176 94.8675 72.1639 94.4088 72.6118L90.9824 75.9573L90.1735 75.1288L93.5436 71.8381C93.9672 71.4245 94.1898 70.9923 94.2114 70.5415C94.2353 70.0884 94.0599 69.67 93.6851 69.2861C93.4269 69.0217 93.1387 68.8413 92.8207 68.745C92.5049 68.651 92.1787 68.6517 91.8422 68.7472C91.5057 68.8426 91.1806 69.0434 90.867 69.3497ZM100.143 74.5512L99.4406 75.2368L96.712 72.4424L97.4142 71.7568L100.143 74.5512ZM99.5013 71.3098L100.31 72.1383L95.1708 77.1566C94.9367 77.3851 94.7943 77.5905 94.7436 77.7726C94.6974 77.9548 94.7071 78.1191 94.7724 78.2656C94.8423 78.4122 94.9367 78.5463 95.0556 78.668C95.1447 78.7593 95.2225 78.8296 95.289 78.879C95.3578 78.9261 95.4129 78.9637 95.4542 78.992L94.8745 79.8872C94.7986 79.8516 94.7009 79.7938 94.5816 79.7137C94.46 79.6359 94.3237 79.5198 94.1729 79.3653C93.9444 79.1313 93.7707 78.8528 93.652 78.5298C93.5355 78.2092 93.5083 77.8747 93.5703 77.5261C93.6346 77.1799 93.8235 76.8537 94.1371 76.5475L99.5013 71.3098Z" fill="white"/>
</g>
<defs>
<clipPath id="clip0_229_1546">
<rect width="108" height="112" fill="white" transform="translate(0 0.630005)"/>
</clipPath>
</defs>
</svg>
