<svg width="20" height="20" viewBox="0 0 20 20" fill="none" xmlns="http://www.w3.org/2000/svg">
<path d="M2.10888 14.2739L6.33489 9.34994L12.0679 14.8145L12.1009 14.846L12.1353 14.816L15.2939 12.056L17.8911 14.325L17.8902 16.2633C17.8902 17.1559 17.1983 17.8788 16.3519 17.8788H3.64719C2.80162 17.8788 2.10888 17.1568 2.10888 16.2633V14.2739ZM2.10888 12.4613V2.94148C2.10888 2.04892 2.80078 1.32602 3.64719 1.32602H16.3528C17.1984 1.32602 17.8911 2.04804 17.8911 2.94148L17.8903 12.7478L15.326 10.5075L15.2931 10.4787L15.2602 10.5075L12.1328 13.2394L6.29112 7.66966L6.253 7.63331L6.21868 7.67328L2.10888 12.4613ZM16.3519 0.11571H3.64719C2.15813 0.11571 0.95 1.38507 0.95 2.94148V16.2642C0.95 17.8197 2.15723 19.09 3.64719 19.09H16.3528C17.8419 19.09 19.05 17.8206 19.05 16.2642V2.94148C19.0491 1.38508 17.8419 0.11571 16.3519 0.11571Z" fill="#373737" stroke="#373737" stroke-width="0.1"/>
<path d="M13.7058 8.49208C15.165 8.49208 16.353 7.24736 16.353 5.71632C16.353 4.18527 15.1659 2.94055 13.7058 2.94055C12.2465 2.94055 11.0586 4.18527 11.0586 5.71632C11.0586 7.24736 12.2457 8.49208 13.7058 8.49208ZM13.7058 4.05178C14.5812 4.05178 15.2941 4.79843 15.2941 5.71724C15.2941 6.63605 14.582 7.3827 13.7058 7.3827C12.8295 7.3827 12.1175 6.63605 12.1175 5.71724C12.1175 4.79843 12.8295 4.05178 13.7058 4.05178Z" fill="#373737"/>
</svg>
