<svg width="24" height="40" viewBox="0 0 24 40" fill="none" xmlns="http://www.w3.org/2000/svg">
<path d="M16.682 38.2083C16.682 38.729 17.1031 39.15 17.6237 39.15C18.1443 39.15 18.5654 38.729 18.5654 38.2083V1.79167C18.5654 1.27103 18.1443 0.85 17.6237 0.85C17.1031 0.85 16.682 1.27103 16.682 1.79167V38.2083Z" fill="#F7941D" stroke="#F7941D" stroke-width="0.3"/>
<path d="M17.625 25.6917H22.375C22.8956 25.6917 23.3166 25.2706 23.3166 24.75C23.3166 19.0071 22.7594 13.0587 21.7857 8.54226C21.2992 6.28527 20.7068 4.37739 20.0233 3.03015C19.6817 2.35673 19.3135 1.81567 18.9181 1.44117C18.5218 1.06581 18.0894 0.85 17.625 0.85C17.1062 0.85 16.6762 1.26919 16.6762 1.79087C16.6762 2.3029 17.0781 2.72015 17.5893 2.73151C17.6251 2.74343 17.6752 2.77228 17.7392 2.83091C17.8105 2.89614 17.8907 2.99074 17.9783 3.11767C18.1536 3.3715 18.349 3.74046 18.5554 4.22438C18.9678 5.19119 19.4163 6.59865 19.834 8.41706C20.6627 12.0252 21.3668 17.2383 21.4288 23.8083H17.625C17.1043 23.8083 16.6833 24.2294 16.6833 24.75C16.6833 25.2706 17.1043 25.6917 17.625 25.6917Z" fill="#F7941D" stroke="#F7941D" stroke-width="0.3"/>
<path d="M0.85 9.70833C0.85 12.8462 3.40378 15.4 6.54167 15.4C9.67955 15.4 12.2333 12.8462 12.2333 9.70833V1.79167C12.2333 1.27103 11.8123 0.85 11.2917 0.85C10.771 0.85 10.35 1.27103 10.35 1.79167V9.70833C10.35 11.8081 8.64145 13.5167 6.54167 13.5167C4.44188 13.5167 2.73333 11.8081 2.73333 9.70833V1.79167C2.73333 1.27103 2.3123 0.85 1.79167 0.85C1.27103 0.85 0.85 1.27103 0.85 1.79167V9.70833Z" fill="#F7941D" stroke="#F7941D" stroke-width="0.3"/>
<path d="M5.6 38.2083C5.6 38.729 6.02103 39.15 6.54167 39.15C7.0623 39.15 7.48333 38.729 7.48333 38.2083V1.79167C7.48333 1.27103 7.0623 0.85 6.54167 0.85C6.02103 0.85 5.6 1.27103 5.6 1.79167V38.2083Z" fill="#F7941D" stroke="#F7941D" stroke-width="0.3"/>
</svg>
