<svg width="23" height="20" viewBox="0 0 23 20" fill="none" xmlns="http://www.w3.org/2000/svg">
<g clip-path="url(#clip0_297_3933)">
<path d="M15.2341 19.04C12.6878 19.04 10.6244 16.8764 10.6244 14.2063V6.15024C10.6244 4.3779 9.24146 2.9278 7.55122 2.9278C5.86098 2.9278 4.47805 4.3779 4.47805 6.15024V13.9762H7.41951L3.70976 18.8328L0 13.9762H2.94146V6.15024C2.94146 3.48022 5.00488 1.31658 7.55122 1.31658C10.0976 1.31658 12.161 3.48022 12.161 6.15024V14.2063C12.161 15.9787 13.5439 17.4288 15.2341 17.4288C16.9244 17.4288 18.3073 15.9787 18.3073 14.2063V6.28835L18.0878 6.20778C16.5512 5.63235 15.739 3.86001 16.2768 2.23728C16.6939 0.994338 17.8134 0.16571 19.0756 0.16571C19.4159 0.16571 19.7451 0.223254 20.0634 0.34985C20.8098 0.626059 21.4134 1.18999 21.7537 1.93805C22.0939 2.68612 22.1378 3.52625 21.8744 4.30885C21.578 5.19502 20.9195 5.88554 20.0634 6.20778L19.8439 6.28835V14.2063C19.8439 16.8764 17.7805 19.04 15.2341 19.04Z" fill="#373737"/>
</g>
<defs>
<clipPath id="clip0_297_3933">
<rect width="22.039" height="18.8743" fill="white" transform="translate(0 0.16571)"/>
</clipPath>
</defs>
</svg>
