<svg width="1057" height="695" viewBox="0 0 1057 695" fill="none" xmlns="http://www.w3.org/2000/svg">
    <path d="M536.277 659.512C525.843 610.721 467.189 590.074 452.419 585.405C425.482 576.908 397.927 570.443 370.99 561.899C341.131 552.417 312.146 540.378 283.209 528.371C270.519 523.098 257.845 517.841 245.155 512.568C224.92 504.167 204.591 495.717 186.009 484.091C203.098 469.972 203.749 441.352 222.046 428.853C236.229 419.164 256.733 422.214 270.01 411.318C278.396 404.441 282.002 393.467 285.226 383.127C286.496 379.014 287.799 374.742 287.195 370.469C286.56 365.959 283.844 361.702 284.368 357.176C284.94 352.332 289.101 348.663 293.5 346.566C297.9 344.47 302.776 343.422 307.048 341.087C311.32 338.752 315.132 334.512 314.878 329.652C314.576 323.442 308.303 319.55 303.093 316.136C297.884 312.721 292.531 306.749 295.009 301.032C298.233 293.583 311.193 295.139 314.513 287.722C313.258 276.891 321.231 266.837 329.394 259.611C337.558 252.384 347.818 248.048 357.983 244.078C371.991 238.598 386.19 233.579 400.531 229.021C414.285 224.654 428.722 220.397 439.236 210.518C445.764 204.388 450.306 196.478 456.072 189.617C463.235 181.088 472.224 174.211 481.817 168.541C501.019 157.201 522.92 150.451 545.172 149.038C545.982 141.748 550.969 137.221 557.401 133.711C563.833 130.201 571.028 128.073 577.079 123.928C585.163 118.385 590.579 109.681 598.33 103.694C606.843 97.1186 618.294 93.5927 623.678 84.2856C627.632 77.4404 628.093 67.8316 635.002 64.0039C638.29 62.1775 642.403 62.1933 645.595 60.1763C651.107 56.6822 651.631 48.8363 655.57 43.6269C661.43 35.8446 672.818 35.8287 682.029 32.6522C688.922 30.2699 694.91 25.8863 700.929 21.7569C706.949 17.6275 713.302 13.6252 720.465 12.2117C727.628 10.7981 735.823 12.4817 740.445 18.1199" stroke="#F7941D" stroke-width="4.16878" stroke-miterlimit="10" stroke-linejoin="round"/><path d="M542.995 149.117C561.45 151.69 573.854 176.578 591.261 183.201C623.01 195.287 659.571 183.979 692.13 193.683C699.848 195.986 708.012 200.322 710.315 208.041C711.887 213.314 710.442 219.444 713.364 224.114C717.049 230.006 726.149 230.927 729.262 237.137C731.2 241.012 730.072 245.857 727.595 249.414C725.117 252.972 721.496 255.545 718.034 258.134C703.787 268.775 690.748 281.052 679.249 294.615C674.627 300.079 670.085 306.13 669.164 313.229C668.243 320.345 671.085 327.841 668.655 334.591C667.099 338.895 663.637 342.167 660.81 345.788C657.983 349.409 655.68 354.047 656.998 358.43C657.887 361.385 660.365 363.846 660.54 366.927C660.762 370.946 657.061 374.074 655.981 377.966C654.774 382.349 657.061 386.86 659.348 390.799C668.576 406.681 678.931 421.912 690.287 436.349C696.529 444.29 705.471 448.69 713.412 454.931C723.418 462.793 733.551 470.734 745.24 475.769C754.293 479.676 764.966 482.424 770.001 490.905C774.209 498.004 773.542 507.915 779.8 513.283C782.325 515.443 785.661 516.507 788.122 518.747C794.364 524.401 792.712 534.724 796.826 542.062C800.51 548.621 808.166 551.766 815.44 553.656C822.714 555.546 830.465 556.801 836.5 561.279C845.044 567.616 848.157 578.877 849.889 589.375C851.62 599.873 852.747 611.039 858.973 619.663" stroke="#F7941D" stroke-width="4.16878" stroke-miterlimit="10" stroke-linejoin="round"/><path d="M295.23 306.353C289.465 310.974 286.732 307.115 280.189 303.684C273.645 300.254 268.198 294.981 261.67 291.55C249.52 285.165 234.908 285.753 221.393 288.231C207.877 290.708 194.599 294.901 180.877 295.235C152.59 295.918 124.685 278.415 112.996 252.654C110.756 247.731 108.723 242.124 103.975 239.536C96.7004 235.565 87.3775 241.426 83.9946 248.986C80.6116 256.546 81.1358 265.186 80.2781 273.413C77.6258 298.65 60.2664 321.79 36.7764 331.383C26.3576 335.639 14.0488 338.038 7.66414 347.297C3.21709 353.745 2.80415 362.084 3.05827 369.914C3.55062 385.589 6.10767 401.218 10.6183 416.242C17.7653 440.002 31.6306 463.206 36.7606 487.475C42.2558 513.474 38.5553 541.316 26.4529 564.964C28.057 574.637 36.03 582.26 45.0035 586.183C53.977 590.122 63.9352 591.011 73.6869 591.964C102.577 594.807 131.927 598.825 158.117 611.357C178.558 621.124 196.33 635.72 216.374 646.314C241.166 659.416 268.833 666.071 296.357 671.392C358.203 683.351 451.956 669.804 483.975 675.886C515.994 681.969 527.429 677.999 536.291 659.512" stroke="#F7941D" stroke-width="4.16878" stroke-miterlimit="10" stroke-linejoin="round"/><path d="M1091.13 680.492C1088.43 681.588 1085.3 680.603 1082.9 678.968C1080.5 677.332 1078.6 675.076 1076.37 673.218C1067.87 666.135 1055.9 665.515 1044.85 665.213C1030.23 664.832 1015.62 664.435 1001.01 664.054C995.595 663.911 988.416 665.896 985.017 661.672C978.6 653.667 975.075 641.898 965.386 638.563C948.964 632.909 929.826 642.565 913.896 635.641C909.338 633.671 905.431 630.463 900.999 628.224C894.916 625.142 888.071 623.999 881.337 622.903C869.14 620.902 856.926 618.885 844.728 616.884C836.739 615.565 827.861 614.438 821.175 618.996C814.218 614.327 803.768 616.216 795.827 618.885C787.886 621.553 780.675 626.048 772.829 628.954C754.676 635.688 734.616 633.481 715.303 632.115C695.99 630.733 675.375 630.59 658.81 640.644C645.913 648.474 635.59 662.339 620.565 663.689C603.841 665.198 552.938 661.846 536.31 659.559" stroke="#474747" stroke-width="3.12658" stroke-miterlimit="10" stroke-linejoin="round"/><rect x="839.746" y="603.898" width="24.3196" height="24.3196" fill="#F7941D" stroke="white" stroke-width="2.08439"/><rect x="523.688" y="646.78" width="24.3196" height="24.3196" fill="#F7941D" stroke="white" stroke-width="2.08439"/><rect x="18.6297" y="559.427" width="24.3196" height="24.3196" fill="#F7941D" stroke="white" stroke-width="2.08439"/><rect x="88.5115" y="225.898" width="24.3196" height="24.3196" fill="#F7941D" stroke="white" stroke-width="2.08439"/><path d="M744.483 2.26306L743.746 1.52611L743.009 2.26306L727.286 17.9858L725.507 19.7649H728.023H759.469H761.985L760.206 17.9858L744.483 2.26306Z" fill="#F7941D" stroke="white" stroke-width="2.08439"/><rect x="536.393" y="136.958" width="24.3196" height="24.3196" fill="#F7941D" stroke="white" stroke-width="2.08439"/><rect x="283.865" y="294.193" width="24.3196" height="24.3196" fill="#F7941D" stroke="white" stroke-width="2.08439"/><rect x="179.042" y="473.663" width="24.3196" height="24.3196" fill="#F7941D" stroke="white" stroke-width="2.08439"/>
</svg>
