<svg width="22" height="24" viewBox="0 0 22 24" fill="none" xmlns="http://www.w3.org/2000/svg">
<g clip-path="url(#clip0_297_4819)">
<path d="M18.2066 1.51154H7.58594V3.69907H18.2066V1.51154Z" fill="#241F20"/>
<path d="M1.89655 5.19056V3.20189H0V2.00869H1.89655V0.0200195H3.03448V2.00869H4.93103V3.20189H3.03448V5.19056H1.89655Z" fill="#241F20"/>
<path d="M1.89655 14.1396V12.1509H0V10.9577H1.89655V8.96906H3.03448V10.9577H4.93103V12.1509H3.03448V14.1396H1.89655Z" fill="#241F20"/>
<path d="M1.89655 23.0886V21.0999H0V19.9067H1.89655V17.918H3.03448V19.9067H4.93103V21.0999H3.03448V23.0886H1.89655Z" fill="#241F20"/>
<path d="M16.447 23.0886V22.1191L16.1625 22.0396C15.7263 21.9202 15.3233 21.7313 14.9677 21.4827L14.7069 21.3038L14.0763 21.965L13.3841 21.2391L14.0147 20.5779L13.844 20.3044C13.6069 19.9266 13.4267 19.509 13.3177 19.0516L13.2418 18.7533H12.3125V17.2568H13.2418L13.3177 16.9585C13.4267 16.521 13.5974 16.1084 13.8297 15.7355L13.9957 15.467L13.3841 14.8257L14.0763 14.0998L14.6784 14.7312L14.9392 14.5472C15.3043 14.2887 15.7168 14.0998 16.1578 13.9755L16.4422 13.896V12.9215H17.8694V13.896L18.1539 13.9755C18.5853 14.0948 18.9836 14.2788 19.344 14.5274L19.6047 14.7063L20.2353 14.0451L20.9323 14.7759L20.3017 15.4372L20.4724 15.7106C20.7142 16.0885 20.8897 16.5111 21.0034 16.9685L21.0746 17.2668H22.0039V18.7433H21.0746L21.0034 19.0416C20.8897 19.504 20.7047 19.9365 20.4582 20.3243L20.2828 20.5978L20.9323 21.2789L20.2353 22.0048L19.581 21.3187L19.325 21.4927C18.9694 21.7363 18.5759 21.9202 18.1539 22.0296L17.8694 22.1042V23.0786H16.4517L16.447 23.0886ZM17.1534 15.7355C15.9586 15.7355 14.9866 16.7547 14.9866 18.0075C14.9866 19.2604 15.9586 20.2846 17.1534 20.2846C17.7319 20.2846 18.2772 20.0459 18.6897 19.6184C19.0974 19.1858 19.325 18.619 19.325 18.0075C19.325 16.7547 18.353 15.7355 17.1534 15.7355Z" fill="#241F20"/>
<path d="M7.58677 21.5971V19.4095H10.8678C11.0243 20.1851 11.3088 20.9309 11.707 21.5971H7.58203H7.58677Z" fill="#241F20"/>
<path d="M7.58594 12.6481V10.4606H18.2066V11.2511C17.851 11.1864 17.5002 11.1566 17.1588 11.1566C15.6937 11.1566 14.2665 11.6836 13.1286 12.6481H7.59068H7.58594Z" fill="#241F20"/>
</g>
<defs>
<clipPath id="clip0_297_4819">
<rect width="22" height="23.0686" fill="white" transform="translate(0 0.0200195)"/>
</clipPath>
</defs>
</svg>
