<svg width="45" height="52" viewBox="0 0 45 52" fill="none" xmlns="http://www.w3.org/2000/svg">
<path d="M1 51.7015C1.49613 49.9666 3.03731 48.5882 4.80017 48.3008C6.15134 48.0773 7.60808 48.4445 8.86425 47.891C10.189 47.3056 10.9227 45.8686 12.0786 44.9905C12.3636 44.7723 12.6697 44.5914 12.9917 44.437C13.8097 44.0485 14.7176 43.8356 15.6148 43.6068C15.8735 43.5429 16.1268 43.4737 16.3801 43.4046C18.523 42.7925 20.5392 41.7122 22.2493 40.2646C22.9777 39.6472 23.6955 38.9341 24.4872 38.4072C25.0678 38.0081 25.6906 37.71 26.382 37.6089C26.535 37.5876 26.6776 37.577 26.8306 37.577C28.0604 37.545 29.2691 38.1358 30.3141 38.833C34.6157 41.7122 37.3655 46.5392 41.6935 49.3811C42.6805 50.0251 43.8575 50.7329 44 51.9091" stroke="#F7941D" stroke-width="1.3" stroke-miterlimit="10" stroke-linejoin="round"/>
<path d="M14.999 22L8.34007 17.0206C8.09843 16.825 7.80426 16.7273 7.51009 16.7273C7.13712 16.7273 6.76416 16.8868 6.50676 17.1956C6.08126 17.7051 6.11803 18.441 6.59606 18.9042L13.5931 24.9822L13.2149 44.0909" stroke="#F7941D" stroke-width="1.3" stroke-miterlimit="10" stroke-linejoin="round"/>
<path d="M18 21.5L26.7987 16.8574C27.0166 16.7365 27.2682 16.7049 27.4973 16.7417C27.8271 16.7943 28.1234 16.994 28.2743 17.3041C28.3357 17.4355 28.3637 17.5722 28.3637 17.7035C28.3637 17.9085 28.2966 18.1135 28.1681 18.2817C28.101 18.3763 28.0116 18.4551 27.9054 18.5235L19.6554 24.268L19.7616 29.6395L23.2047 30.8588C23.7636 31.0533 24.2108 31.4632 24.4288 31.9836L26.8266 37.5757" stroke="#F7941D" stroke-width="1.3" stroke-miterlimit="10" stroke-linejoin="round"/>
<path d="M15.332 44.0909L16.8459 33.6667L21.3658 34.1177C22.0115 34.185 22.565 34.5842 22.8091 35.1544L24.4532 39.0265" stroke="#F7941D" stroke-width="1.3" stroke-miterlimit="10" stroke-linejoin="round"/>
<path d="M28.3628 21.9394L21.8477 3.69696" stroke="#F7941D" stroke-width="1.3" stroke-miterlimit="10" stroke-linecap="round" stroke-linejoin="round"/>
<path d="M24.8924 10.1212C26.0602 7.84818 27.5363 8.01095 29.6936 7.76679C31.8509 7.52263 32.1212 5.34842 32.1212 5.34842C32.1212 5.34842 30.7966 1.8662 30.4559 1C29.4881 4.23806 24.276 2.33127 23 5.15658L24.8924 10.1154V10.1212Z" stroke="#F7941D" stroke-width="1.3" stroke-miterlimit="10" stroke-linecap="round" stroke-linejoin="round"/>
<path d="M16 22C17.6569 22 19 20.6569 19 19C19 17.3431 17.6569 16 16 16C14.3431 16 13 17.3431 13 19C13 20.6569 14.3431 22 16 22Z" stroke="#F7941D" stroke-width="1.3" stroke-miterlimit="10" stroke-linecap="round" stroke-linejoin="round"/>
</svg>
