<svg width="32" height="34" viewBox="0 0 32 34" fill="none" xmlns="http://www.w3.org/2000/svg">
<path d="M27.3815 7.85162C29.5719 10.4497 30.889 13.8092 30.889 17.4718C30.889 25.7244 24.1988 32.4145 15.9462 32.4145C12.9873 32.4145 10.2304 31.5557 7.91016 30.0726" stroke="#F7941D" stroke-width="1.8" stroke-miterlimit="10" stroke-linecap="round"/>
<path d="M8.75733 28.9427L7.08782 30.9878L6.15131 28.5191L8.75733 28.9427Z" fill="#231F20" stroke="#F7941D" stroke-width="1.8"/>
<path d="M2.9161 24.797C1.69644 22.632 1 20.1349 1 17.4718C1 9.21924 7.69012 2.52911 15.9427 2.52911C17.9238 2.52911 19.8146 2.91522 21.5467 3.61527" stroke="#F7941D" stroke-width="1.8" stroke-miterlimit="10" stroke-linecap="round"/>
<path d="M20.9178 4.87978L22.1908 2.56395L23.5597 4.8235L20.9178 4.87978Z" fill="#231F20" stroke="#F7941D" stroke-width="1.8"/>
<path d="M16.39 15.5773C14.6507 16.9558 10.1798 18.8177 8.05078 26.677" stroke="#F7941D" stroke-width="1.8" stroke-miterlimit="10" stroke-linecap="round"/>
<path d="M9.63838 22.2602C7.56712 7.75054 19.4318 14.3649 23.0222 8.67792C23.0222 8.67792 27.4607 22.3865 11.8323 25.8976" stroke="#F7941D" stroke-width="1.8" stroke-linecap="round" stroke-linejoin="round"/>
</svg>
