<svg width="33" height="34" viewBox="0 0 33 34" fill="none" xmlns="http://www.w3.org/2000/svg">
<path d="M23.8015 29.7088C25.342 29.7088 26.4035 28.725 26.4941 27.4435C26.5329 26.9257 26.5459 26.3949 26.6106 25.8771C26.7401 24.725 27.3614 23.9354 28.4359 23.5082C28.876 23.327 29.3161 23.1716 29.7562 22.9774C31.1543 22.369 31.6721 20.7509 30.8954 19.4435C30.6365 19.0163 30.3647 18.602 30.1058 18.1748C29.5103 17.1651 29.5103 16.1554 30.1058 15.1457C30.3517 14.7444 30.6106 14.3431 30.8566 13.9418C31.6721 12.5826 31.1414 10.9515 29.6786 10.3431C29.2384 10.1619 28.7983 10.0066 28.3582 9.81239C27.3096 9.35932 26.7142 8.56967 26.5977 7.43051C26.5459 6.91271 26.52 6.39492 26.4812 5.86417C26.3517 4.3755 24.9666 3.36579 23.5038 3.68942C22.986 3.80592 22.4682 3.96126 21.9504 4.06482C20.8501 4.29783 19.9181 3.9742 19.1672 3.13278C18.8436 2.75738 18.5329 2.36903 18.2093 1.99362C17.1996 0.841518 15.465 0.854463 14.4682 2.01951C14.1705 2.36903 13.8857 2.73148 13.588 3.081C12.7983 4.01304 11.8015 4.32372 10.6106 4.05187C10.1316 3.93537 9.65268 3.79298 9.16077 3.68942C7.71093 3.37874 6.33876 4.40139 6.20931 5.86417C6.17048 6.36903 6.14459 6.88683 6.09281 7.39168C5.98925 8.55673 5.38084 9.37226 4.29346 9.82534C3.85333 10.0195 3.38731 10.1749 2.94718 10.369C1.54912 10.9645 1.01838 12.5826 1.79507 13.903C2.04103 14.3043 2.29993 14.7056 2.54588 15.1069C3.19313 16.1554 3.19313 17.2169 2.54588 18.2655C2.31287 18.6538 2.06692 19.0163 1.83391 19.4046C1.01838 20.7509 1.54912 22.3949 2.99896 23.0033C3.45203 23.1975 3.931 23.3658 4.38407 23.56C5.39378 24.013 5.9763 24.8027 6.09281 25.903C6.14459 26.4208 6.17048 26.9386 6.20931 27.4693C6.33876 28.958 7.72388 29.9807 9.17372 29.6571C9.69152 29.5405 10.2093 29.3852 10.7271 29.2816C11.8274 29.0486 12.7595 29.3723 13.5103 30.2137C13.8469 30.5891 14.1446 30.9774 14.4682 31.3528C15.452 32.492 17.1867 32.5049 18.1834 31.3658C18.4812 31.0292 18.7659 30.6797 19.0507 30.3302C19.8663 29.3464 20.8889 28.9969 22.1316 29.3205C22.753 29.4758 23.3744 29.6182 23.7627 29.7088H23.8015Z" stroke="#F7941D" stroke-width="2" stroke-miterlimit="10"/>
<path d="M10.4424 16.595C10.4424 16.595 14.3518 20.7503 14.5201 20.582C14.6883 20.4138 22.2223 12.828 22.2223 12.828" stroke="#F7941D" stroke-width="2" stroke-linecap="round" stroke-linejoin="round"/>
</svg>
