<svg width="23" height="26" viewBox="0 0 23 26" fill="none" xmlns="http://www.w3.org/2000/svg">
<path d="M11.2033 3.92358C9.40744 3.92285 7.65168 4.48064 6.15815 5.52639C4.66462 6.57215 3.50043 8.05888 2.81285 9.79852C2.12527 11.5382 1.94518 13.4526 2.29537 15.2995C2.64556 17.1465 3.5103 18.8431 4.78019 20.1747C6.05008 21.5063 7.66808 22.413 9.4295 22.7802C11.1909 23.1474 13.0166 22.9586 14.6757 22.2376C16.3348 21.5166 17.7526 20.2959 18.7499 18.7298C19.7473 17.1637 20.2792 15.3227 20.2785 13.4395C20.2776 10.9161 19.3211 8.49621 17.6194 6.71183C15.9177 4.92745 13.6099 3.92457 11.2033 3.92358ZM11.2033 21.8471C9.61736 21.8478 8.06679 21.3554 6.74775 20.432C5.42872 19.5086 4.40046 18.1958 3.79305 16.6595C3.18564 15.1233 3.02635 13.4327 3.33533 11.8016C3.64431 10.1704 4.40768 8.67201 5.52889 7.49582C6.6501 6.31963 8.07879 5.51852 9.63425 5.19381C11.1897 4.8691 12.8021 5.03538 14.2674 5.67162C15.7327 6.30786 16.9852 7.38548 17.8664 8.76817C18.7476 10.1509 19.2179 11.7765 19.2179 13.4395C19.2151 15.6675 18.3698 17.8033 16.8674 19.3787C15.365 20.9541 13.3281 21.8405 11.2033 21.8434V21.8471Z" fill="#373737"/>
<path d="M14.5428 2.23325C14.2773 1.58486 13.8385 1.03091 13.2794 0.638246C12.7203 0.245586 12.0648 0.0310138 11.3919 0.0204308C10.7191 0.00984781 10.0577 0.203706 9.48759 0.578605C8.9175 0.953504 8.46308 1.49342 8.17919 2.13316C5.5871 2.89445 3.34321 4.60918 1.85828 6.96345C0.373355 9.31772 -0.253258 12.154 0.0931528 14.9532C0.439563 17.7523 1.73582 20.3269 3.74463 22.2058C5.75344 24.0847 8.3404 25.1421 11.0319 25.1844C13.7235 25.2267 16.3395 24.2512 18.4012 22.4363C20.4628 20.6215 21.8321 18.0887 22.2585 15.3018C22.6848 12.5148 22.1396 9.66008 20.7227 7.26016C19.3057 4.86024 17.1119 3.07572 14.5428 2.23325ZM13.0332 1.86255C12.428 1.75565 11.8156 1.70109 11.2019 1.69944C10.6992 1.70064 10.1972 1.73779 9.69938 1.81065C10.1549 1.3682 10.7554 1.12673 11.3762 1.13639C11.997 1.14606 12.5904 1.40611 13.0332 1.86255ZM11.2019 24.0677C9.19623 24.0684 7.23541 23.4454 5.56747 22.2775C3.89952 21.1095 2.5994 19.4491 1.83154 17.5062C1.06368 15.5634 0.862592 13.4254 1.25371 11.3627C1.64482 9.29996 2.61057 7.40522 4.02879 5.91811C5.44701 4.43101 7.25398 3.41835 9.22114 3.00824C11.1883 2.59813 13.2273 2.80899 15.0801 3.61414C16.933 4.4193 18.5165 5.78257 19.6303 7.53153C20.7442 9.28048 21.3384 11.3365 21.3377 13.4396C21.3339 16.2572 20.2648 18.9582 18.3648 20.9505C16.4648 22.9428 13.8889 24.0638 11.2019 24.0677Z" fill="#373737"/>
<path d="M16.0104 8.77986C16.0517 8.72598 16.0718 8.65754 16.0666 8.5886C16.0613 8.51966 16.0311 8.45545 15.9821 8.40915C15.9375 8.35856 15.8763 8.32741 15.8108 8.32192C15.7453 8.31642 15.6803 8.33698 15.6285 8.3795L11.2483 11.6825H11.2023C10.756 11.6825 10.328 11.8684 10.0124 12.1993C9.69681 12.5302 9.51951 12.979 9.51951 13.447C9.51951 13.447 9.51951 13.4841 9.51951 13.5026L6.4049 18.0808C6.36587 18.1357 6.34721 18.2035 6.35242 18.2718C6.35762 18.34 6.38633 18.4039 6.43318 18.4515C6.48286 18.5037 6.55025 18.533 6.62055 18.5331C6.67507 18.5323 6.72809 18.5142 6.77257 18.4812L11.1493 15.1967H11.2023C11.6477 15.1967 12.0748 15.0112 12.3898 14.681C12.7047 14.3508 12.8816 13.9029 12.8816 13.4359C12.8816 13.4174 12.8816 13.4025 12.8816 13.384L16.0104 8.77986ZM11.2023 14.0883C11.079 14.0891 10.9582 14.0513 10.8553 13.9799C10.7525 13.9085 10.6722 13.8067 10.6246 13.6873C10.5771 13.5679 10.5645 13.4364 10.5884 13.3095C10.6123 13.1826 10.6716 13.066 10.7588 12.9746C10.8461 12.8831 10.9572 12.8209 11.0783 12.7958C11.1993 12.7708 11.3247 12.784 11.4385 12.8338C11.5524 12.8837 11.6495 12.9679 11.7176 13.0757C11.7857 13.1836 11.8217 13.3102 11.821 13.4396C11.821 13.6117 11.7558 13.7767 11.6398 13.8983C11.5238 14.02 11.3664 14.0883 11.2023 14.0883Z" fill="#373737"/>
<path d="M10.6719 8.05707C10.6719 8.20454 10.7277 8.34598 10.8272 8.45026C10.9266 8.55454 11.0615 8.61312 11.2022 8.61312C11.3428 8.61312 11.4777 8.55454 11.5771 8.45026C11.6766 8.34598 11.7325 8.20454 11.7325 8.05707V5.94406C11.7325 5.79658 11.6766 5.65515 11.5771 5.55086C11.4777 5.44658 11.3428 5.388 11.2022 5.388C11.0615 5.388 10.9266 5.44658 10.8272 5.55086C10.7277 5.65515 10.6719 5.79658 10.6719 5.94406V8.05707Z" fill="#373737"/>
<path d="M11.2022 18.0919C11.0615 18.0919 10.9266 18.1505 10.8272 18.2548C10.7277 18.3591 10.6719 18.5005 10.6719 18.648V20.7647C10.6719 20.9122 10.7277 21.0536 10.8272 21.1579C10.9266 21.2622 11.0615 21.3207 11.2022 21.3207C11.3428 21.3207 11.4777 21.2622 11.5771 21.1579C11.6766 21.0536 11.7325 20.9122 11.7325 20.7647V18.648C11.7325 18.5005 11.6766 18.3591 11.5771 18.2548C11.4777 18.1505 11.3428 18.0919 11.2022 18.0919Z" fill="#373737"/>
<path d="M6.67924 13.3543C6.67924 13.2068 6.62337 13.0654 6.52392 12.9611C6.42447 12.8568 6.28959 12.7982 6.14895 12.7982H4.13381C3.99317 12.7982 3.85829 12.8568 3.75884 12.9611C3.65939 13.0654 3.60352 13.2068 3.60352 13.3543C3.60352 13.5017 3.65939 13.6432 3.75884 13.7475C3.85829 13.8517 3.99317 13.9103 4.13381 13.9103H6.14895C6.28959 13.9103 6.42447 13.8517 6.52392 13.7475C6.62337 13.6432 6.67924 13.5017 6.67924 13.3543Z" fill="#373737"/>
<path d="M18.2661 12.7982H16.251C16.1104 12.7982 15.9755 12.8568 15.876 12.9611C15.7766 13.0654 15.7207 13.2068 15.7207 13.3543C15.7207 13.5017 15.7766 13.6432 15.876 13.7475C15.9755 13.8517 16.1104 13.9103 16.251 13.9103H18.2661C18.4068 13.9103 18.5417 13.8517 18.6411 13.7475C18.7406 13.6432 18.7964 13.5017 18.7964 13.3543C18.7964 13.2068 18.7406 13.0654 18.6411 12.9611C18.5417 12.8568 18.4068 12.7982 18.2661 12.7982Z" fill="#373737"/>
</svg>
